HIERARCHY
ROOT Hips
{
	OFFSET 0.000000 0.000000 0.000000 
	CHANNELS 6 Xposition Yposition Zposition Yrotation Zrotation Xrotation 
	JOINT Lumbar
	{
		OFFSET 0.000000 0.000000 0.000000 
		CHANNELS 3 Zrotation Xrotation Yrotation
		JOINT Neck
		{
			OFFSET 0.000000 0.445665 0.000000 
			CHANNELS 3 Zrotation Xrotation Yrotation
			End Site
			{
				OFFSET 0.000000 0.227535 0.000000 
			}
		}
		JOINT RightShoulder
		{
			OFFSET 0.019635 0.377685 0.194865 
			CHANNELS 3 Zrotation Xrotation Yrotation
			JOINT RightElbow
			{
				OFFSET 0.000000 -0.243375 0.000000 
				CHANNELS 2 Zrotation Yrotation
				JOINT RightWrist
				{
					OFFSET 0.000000 -0.264825 0.000000 
					CHANNELS 2 Zrotation Xrotation
					End Site
					{
						OFFSET 0.006600 -0.176220 0.000990 
					}
				}
			}
		}
		JOINT LeftShoulder
		{
			OFFSET 0.019635 0.377685 -0.194865 
			CHANNELS 3 Zrotation Xrotation Yrotation
			JOINT LeftElbow
			{
				OFFSET 0.000000 -0.243375 0.000000 
				CHANNELS 2 Zrotation Yrotation
				JOINT LeftWrist
				{
					OFFSET 0.000000 -0.264825 0.000000 
					CHANNELS 2 Zrotation Xrotation
					End Site
					{
						OFFSET 0.006600 -0.176220 -0.000990 
					}
				}
			}
		}
	}
	JOINT RightHip
	{
		OFFSET 0.052140 -0.069960 0.075570 
		CHANNELS 3 Zrotation Xrotation Yrotation
		JOINT RightKnee
		{
			OFFSET 0.000000 -0.402270 0.000000 
			CHANNELS 1 Zrotation
			JOINT RightAnkle
			{
				OFFSET 0.000000 -0.404085 0.000000 
				CHANNELS 3 Zrotation Xrotation Yrotation
				End Site
				{
					OFFSET 0.204105 -0.089430 0.008415 
				}
			}
		}
	}
	JOINT LeftHip
	{
		OFFSET 0.052140 -0.069960 -0.075570 
		CHANNELS 3 Zrotation Xrotation Yrotation
		JOINT LeftKnee
		{
			OFFSET 0.000000 -0.402270 0.000000 
			CHANNELS 1 Zrotation
			JOINT LeftAnkle
			{
				OFFSET 0.000000 -0.404085 0.000000 
				CHANNELS 3 Zrotation Xrotation Yrotation
				End Site
				{
					OFFSET 0.204105 -0.089430 -0.008415 
				}
			}
		}
	}
}
MOTION
Frames: 22
Frame Time: 0.02
-0.00025 -4e-05 -0.00062 174.47305 -46.97053 -0.4141 56.98621 1.79408 2.20975 -3.88481 -7.9975 -0.97767 157.64672 -80.0831 -59.641 10.44271 100.45982 -12.07244 -10.10519 155.4011 70.51878 78.65954 7.99081 -104.19917 -9.75973 12.67266 50.73637 -0.96205 -6.90339 -18.69548 -7.61274 -3.77133 -4.10996 51.45624 4.35247 13.9547 -24.18997 -7.60194 3.65133 4.06662
-0.00045 -7e-05 -0.00072 174.44573 -46.95359 -0.43101 57.01496 1.76858 2.2406 -3.92469 -7.97618 -0.97869 157.40662 -80.04464 -60.01622 10.36463 100.47723 -12.03016 -10.03904 155.26464 70.5562 78.86339 7.94636 -104.15572 -9.72795 12.61665 50.69759 -1.01073 -7.30237 -18.69743 -7.58321 -3.73858 -4.0925 51.43088 4.3416 13.83099 -24.18931 -7.61329 3.66339 4.07272
-0.00066 -0.0001 -0.00082 174.41853 -46.93667 -0.44785 57.04369 1.74306 2.27136 -3.9647 -7.95453 -0.9797 157.1666 -80.00644 -60.39083 10.28673 100.49452 -11.98759 -9.97287 155.12841 70.59376 79.06706 7.90198 -104.11221 -9.69599 12.56052 50.65886 -1.05929 -7.70028 -18.69939 -7.55377 -3.70593 -4.0751 51.40554 4.33079 13.7078 -24.18865 -7.6246 3.67541 4.07879
-0.00087 -0.00013 -0.00092 174.39131 -46.91978 -0.4647 57.07236 1.71763 2.30212 -4.0045 -7.93324 -0.98071 156.92733 -79.96809 -60.76495 10.20888 100.51202 -11.94545 -9.90693 154.99239 70.63108 79.27035 7.85767 -104.06908 -9.66434 12.50469 50.62019 -1.10782 -8.09804 -18.70133 -7.52434 -3.67328 -4.05769 51.38025 4.31997 13.58449 -24.18799 -7.63591 3.68744 4.08487
-0.00107 -0.00016 -0.00102 174.36396 -46.90288 -0.48164 57.10101 1.69223 2.33294 -4.0441 -7.91238 -0.98172 156.68769 -79.92952 -61.13956 10.13088 100.52924 -11.90355 -9.841 154.85605 70.66827 79.47368 7.8133 -104.02546 -9.63277 12.44893 50.58148 -1.15647 -8.49685 -18.70328 -7.49482 -3.64054 -4.04024 51.35497 4.30907 13.4606 -24.18733 -7.64728 3.69951 4.09098
-0.00128 -0.00019 -0.00113 174.33708 -46.8859 -0.49827 57.12992 1.66646 2.36357 -4.08497 -7.88902 -0.98275 156.44657 -79.89214 -61.51422 10.05317 100.54644 -11.85945 -9.77427 154.71998 70.70665 79.67807 7.76887 -103.98182 -9.59987 12.39194 50.54273 -1.20486 -8.89288 -18.70524 -7.46553 -3.60807 -4.02294 51.32951 4.29845 13.33891 -24.18668 -7.65846 3.71142 4.09699
-0.00148 -0.00022 -0.00123 174.30927 -46.86913 -0.51551 57.15828 1.64151 2.39459 -4.12319 -7.87088 -0.98374 156.21016 -79.85221 -61.88812 9.97498 100.56477 -11.82039 -9.70951 154.58393 70.74232 79.88002 7.72469 -103.93991 -9.57023 12.33792 50.50412 -1.25368 -9.29392 -18.70717 -7.43584 -3.5751 -4.00536 51.30445 4.2873 13.21292 -24.18601 -7.67 3.72365 4.10319
-0.00169 -0.00025 -0.00133 174.28234 -46.85212 -0.53216 57.18712 1.61574 2.42521 -4.16396 -7.84764 -0.98476 155.96673 -79.81498 -62.26317 9.89721 100.58005 -11.77567 -9.64239 154.44712 70.781 80.08438 7.68013 -103.89342 -9.5366 12.28035 50.46535 -1.30217 -9.69062 -18.70913 -7.40649 -3.54256 -3.98802 51.27899 4.27662 13.0909 -24.18536 -7.68121 3.73558 4.10921
-0.0019 -0.00028 -0.00143 174.25641 -46.83497 -0.5482 57.21667 1.58917 2.45548 -4.20747 -7.81919 -0.98584 155.72512 -79.77968 -62.63808 9.82001 100.59956 -11.72795 -9.5745 154.31223 70.82141 80.29122 7.63568 -103.85312 -9.50195 12.22159 50.42649 -1.35001 -10.08108 -18.71114 -7.37762 -3.51066 -3.97102 51.25313 4.26659 12.97368 -24.18474 -7.69201 3.74717 4.11502
-0.0021 -0.00031 -0.00154 174.22451 -46.81909 -0.56806 57.24254 1.5678 2.48818 -4.2341 -7.8238 -0.98664 155.5043 -79.72914 -63.00916 9.73968 100.61868 -11.70927 -9.51738 154.17483 70.84598 80.48237 7.59229 -103.81266 -9.48472 12.17911 50.38844 -1.40084 -10.50468 -18.71287 -7.34618 -3.47543 -3.95223 51.22984 4.25303 12.82868 -24.18393 -7.70517 3.76079 4.12208
-0.00231 -0.00034 -0.00164 174.2053 -46.80027 -0.57969 57.27591 1.5351 2.51548 -4.29703 -7.75675 -0.98802 155.21972 -79.71339 -63.39123 9.66589 100.62331 -11.62182 -9.43352 154.03729 70.90772 80.7075 7.54561 -103.74989 -9.42338 12.09633 50.3485 -1.44584 -10.86005 -18.71521 -7.32004 -3.447 -3.93711 51.20099 4.2468 12.74241 -24.18354 -7.71334 3.77007 4.12649
-0.00259 -0.0004 -0.00172 174.22046 -46.7755 -0.56979 57.33221 1.47404 2.53022 -4.45484 -7.50685 -0.99102 154.8712 -79.77392 -63.7431 9.61039 100.72574 -11.40511 -9.30677 153.93197 71.04325 81.01976 7.49884 -103.81778 -9.30134 11.95129 50.30507 -1.4709 -11.01221 -18.71904 -7.30975 -3.43921 -3.933 51.1579 4.2616 12.81753 -24.18416 -7.70776 3.76777 4.12364
-0.00287 -0.00047 -0.00181 174.24839 -46.7475 -0.55137 57.39563 1.40115 2.53913 -4.64992 -7.18255 -0.99461 154.40358 -79.87403 -64.09161 9.5613 100.79672 -11.10826 -9.14643 153.81212 71.22227 81.36721 7.44736 -103.83244 -9.12474 11.7573 50.25961 -1.49085 -11.09859 -18.72354 -7.30456 -3.43792 -3.93242 51.10921 4.28348 12.95143 -24.18523 -7.69719 3.76105 4.11814
-0.00314 -0.00054 -0.00189 174.27085 -46.71946 -0.53622 57.45419 1.33183 2.54926 -4.83112 -6.88314 -0.9979 153.96195 -79.96713 -64.51378 9.50914 100.78126 -10.80935 -8.98292 153.68829 71.39864 81.70263 7.3919 -103.74008 -8.93248 11.5535 50.21377 -1.51569 -11.22581 -18.7278 -7.29618 -3.43234 -3.9296 51.06224 4.30163 13.05847 -24.18615 -7.68894 3.75609 4.11381
-0.00345 -0.00061 -0.00198 174.29216 -46.69736 -0.5238 57.51946 1.26993 2.5654 -4.99974 -6.62074 -1.00131 153.78067 -80.00942 -64.73678 9.45795 101.15555 -10.67298 -8.90161 153.64343 71.49904 82.02169 7.36127 -104.18201 -8.907 11.48289 50.17272 -1.52963 -11.30767 -18.73169 -7.29144 -3.43229 -3.92944 51.01809 4.32237 13.16687 -24.18679 -7.68045 3.7521 4.10957
-0.00366 -0.00066 -0.00205 174.31861 -46.66267 -0.50339 57.57266 1.18998 2.56765 -5.20306 -6.26424 -1.00463 152.85108 -80.17262 -65.24173 9.40587 100.75504 -10.17874 -8.63558 153.38759 71.77273 82.38279 7.27907 -103.52297 -8.52609 11.12586 50.12211 -1.56515 -11.46719 -18.73664 -7.28037 -3.42239 -3.92461 50.96755 4.3389 13.2856 -24.18821 -7.6713 3.74514 4.10457
-0.00361 -0.00066 -0.00209 174.35833 -46.58908 -0.46548 57.58848 1.0615 2.53307 -5.49575 -5.66136 -1.00745 151.48097 -80.60582 -67.69709 9.35264 97.83788 -8.72089 -7.91725 152.95572 72.47619 82.85396 7.04462 -99.61689 -7.14144 9.96678 50.03777 -1.66068 -11.86735 -18.74323 -7.25012 -3.38278 -3.90563 50.89364 4.34607 13.42484 -24.19079 -7.66125 3.73023 4.09779
-0.00345 -0.00065 -0.00212 174.40233 -46.50375 -0.41941 57.59212 0.91569 2.48471 -5.82145 -4.96753 -1.01026 149.11677 -81.16565 -70.24604 9.29735 94.21124 -6.90627 -7.00652 152.26103 73.36136 83.36532 6.76049 -94.63929 -5.4121 8.52495 49.94525 -1.77819 -12.34568 -18.75109 -7.21341 -3.33325 -3.8819 50.81471 4.34803 13.57128 -24.19429 -7.65075 3.71263 4.09041
-0.00333 -0.00065 -0.00214 174.44298 -46.4272 -0.37543 57.60306 0.77872 2.4426 -6.13042 -4.31813 -1.01304 146.0933 -81.70789 -71.94811 9.24159 91.16523 -5.24989 -6.14939 151.39161 74.18611 83.85712 6.50635 -90.30467 -3.85829 7.22844 49.86175 -1.8863 -12.78213 -18.75913 -7.17992 -3.28885 -3.86057 50.74289 4.34971 13.71019 -24.19794 -7.64066 3.69681 4.08355
-0.00326 -0.00062 -0.0022 174.49017 -46.33649 -0.33783 57.60757 0.63676 2.40031 -6.44845 -3.65196 -1.01565 147.53864 -82.09848 -76.92929 9.19359 87.03909 -3.60104 -5.42746 151.66408 74.91175 84.35733 6.22081 -85.33596 -2.20456 5.86138 49.75621 -1.99208 -13.24473 -18.76401 -7.14534 -3.24193 -3.83827 50.65098 4.3627 13.86895 -24.19924 -7.62958 3.67847 4.07556
-0.00305 -0.00066 -0.00217 174.5244 -46.2719 -0.28528 57.62155 0.50185 2.35522 -6.7544 -3.00148 -1.01904 139.71462 -82.81485 -75.24911 9.12688 84.98074 -1.86049 -4.38681 149.62077 75.89526 84.84694 5.98886 -81.401 -0.70073 4.57204 49.69415 -2.10758 -13.67027 -18.77575 -7.11152 -3.19796 -3.81689 50.59917 4.35093 13.98751 -24.20564 -7.62046 3.66479 4.0698
-0.00249 -0.00087 -0.00193 174.52351 -46.28793 -0.19199 57.67263 0.38534 2.30537 -7.02331 -2.40525 -1.02087 104.16485 -84.5677 -53.92408 9.02678 88.91047 0.10477 -2.44835 140.15141 77.47115 85.31585 5.91762 -80.87527 0.5043 3.59275 49.75851 -2.24823 -13.99175 -18.80612 -7.0807 -3.16342 -3.79851 50.66486 4.27091 13.99152 -24.22584 -7.61724 3.6649 4.07045
